<svg width="371" height="151" viewBox="0 0 371 151" fill="none" xmlns="http://www.w3.org/2000/svg">
<path d="M89.5717 91.1422C95.1225 112.759 81.8703 134.822 60.0326 140.319C49.458 142.979 38.4669 141.405 29.0909 135.883C19.7149 130.361 13.0676 121.547 10.3814 111.076C4.8306 89.4586 18.0828 67.3955 39.912 61.8987C42.3432 61.2842 43.8052 58.843 43.1932 56.4355C42.5727 54.028 40.1075 52.5801 37.6764 53.1862C11.0019 59.9036 -5.19145 86.8659 1.59192 113.281C4.8731 126.076 12.9995 136.843 24.4582 143.594C35.9168 150.345 49.3475 152.272 62.2767 149.015C75.8435 145.597 86.6986 136.952 93.2014 125.798C99.4833 115.024 101.702 101.909 98.3697 88.9199C97.7492 86.5124 95.284 85.0645 92.8529 85.6706C90.4218 86.2851 88.9597 88.7263 89.5717 91.1338V91.1422Z" fill="url(#paint0_linear_19394_37829)"/>
<path d="M119.816 23.995L108.094 17.2944L110.763 12.7067C112.973 8.91023 111.664 4.06156 107.83 1.87293C103.997 -0.315705 99.1004 0.98064 96.8903 4.77708L54.133 78.1131C41.8668 75.9245 29.8811 83.5763 26.9825 95.7316C23.9818 108.308 31.8447 120.909 44.5444 123.881C57.2441 126.852 69.9693 119.066 72.97 106.49C74.7551 98.9978 72.664 91.5059 68.0142 86.0343L96.4568 37.2446L108.179 43.9452C108.706 44.2482 109.377 44.0715 109.683 43.5496L112.948 37.9517C113.254 37.4298 113.075 36.7648 112.548 36.4618L108.213 33.9869L111.095 29.0541C111.095 29.0541 111.103 29.012 111.12 28.9867L115.464 31.47C115.991 31.773 116.662 31.5963 116.968 31.0744L120.233 25.4765C120.539 24.9546 120.352 24.2896 119.833 23.9865L119.816 23.995ZM52.8664 107.618C49.1007 109.209 44.7399 107.475 43.1334 103.745C41.5268 100.016 43.2779 95.698 47.0436 94.107C50.8093 92.516 55.17 94.2501 56.7766 97.9792C58.3832 101.708 56.6321 106.027 52.8664 107.618Z" fill="#BFBFBE"/>
<path d="M136.435 88.019V87.8843C136.435 73.9107 148.08 62.9507 163.806 62.9507C174.415 62.9507 181.241 67.0586 185.84 72.9511L175.01 80.6955C172.043 77.2694 168.635 75.0808 163.662 75.0808C156.394 75.0808 151.277 80.7628 151.277 87.7496V87.8843C151.277 95.0731 156.394 100.696 163.662 100.696C169.077 100.696 172.264 98.3645 175.384 94.8711L186.214 101.993C181.317 108.23 174.712 112.818 163.22 112.818C148.386 112.818 136.443 102.338 136.443 88.019H136.435Z" fill="#525252"/>
<path d="M192.36 63.9111H212.387C230.935 63.9111 241.688 73.7768 241.688 87.6157V87.7504C241.688 101.589 230.782 111.859 212.09 111.859H192.36V63.9111ZM212.608 100.083C221.211 100.083 226.923 95.6968 226.923 87.9608V87.8262C226.923 80.1575 221.211 75.7045 212.608 75.7045H206.751V100.091H212.608V100.083Z" fill="#525252"/>
<path d="M249.109 63.9111H264.316L276.701 82.4724L289.086 63.9111H304.294V111.859H289.979V84.3244L276.701 103.096H276.404L263.202 84.4675V111.867H249.109V63.9196V63.9111Z" fill="#525252"/>
<path d="M327.509 87.4726L310.449 63.9111H326.99L336.188 77.4049L345.462 63.9111H361.63L344.569 87.3379L362.369 111.859H345.827L335.89 97.4056L325.877 111.859H309.709L327.509 87.4726Z" fill="#525252"/>
<path d="M137.939 4.4812H151.472V38.6239H175.12V49.5755H137.939V4.4812Z" fill="#7B388D"/>
<path d="M180.918 4.4812H194.451V38.6239H218.099V49.5755H180.918V4.4812Z" fill="#7B388D"/>
<path d="M240.77 4.15186H253.819L274.602 49.566H260.092L256.53 41.5101H237.693L234.208 49.566H219.978L240.762 4.15186H240.77ZM252.629 31.7876L247.188 18.9672L241.68 31.7876H252.629Z" fill="#7B388D"/>
<path d="M268.464 4.4812H283.603L294.696 33.0176L305.789 4.4812H320.648L300.833 49.8954H288.278L268.464 4.4812Z" fill="#7B388D"/>
<path d="M325.391 4.4812H364.663V15.1129H338.779V21.9398H362.215V31.797H338.779V38.9438H365.011V49.5755H325.391V4.4812Z" fill="#7B388D"/>
<path d="M138.391 129.613H152.068V133.519H143.057V136.028H151.218V139.656H143.057V142.282H152.195V146.188H138.399V129.605L138.391 129.613Z" fill="#A3A3A2"/>
<path d="M167.444 137.762L161.86 129.613H167.274L170.284 134.277L173.318 129.613H178.614L173.029 137.711L178.86 146.188H173.446L170.19 141.188L166.909 146.188H161.613L167.444 137.753V137.762Z" fill="#A3A3A2"/>
<path d="M188.901 129.613H196.186C200.487 129.613 203.258 131.768 203.258 135.438V135.489C203.258 139.395 200.172 141.457 195.948 141.457H193.618V146.196H188.909V129.613H188.901ZM195.846 137.854C197.52 137.854 198.54 137.004 198.54 135.699V135.649C198.54 134.226 197.52 133.469 195.82 133.469H193.61V137.854H195.846Z" fill="#A3A3A2"/>
<path d="M213.51 129.613H227.187V133.519H218.177V136.028H226.337V139.656H218.177V142.282H227.315V146.188H213.519V129.605L213.51 129.613Z" fill="#A3A3A2"/>
<path d="M237.965 129.613H244.527C250.605 129.613 254.124 133.023 254.124 137.812V137.863C254.124 142.644 250.554 146.196 244.434 146.196H237.974V129.613H237.965ZM244.595 142.122C247.418 142.122 249.288 140.607 249.288 137.93V137.88C249.288 135.228 247.418 133.688 244.595 133.688H242.674V142.122H244.595Z" fill="#A3A3A2"/>
<path d="M264.912 129.613H269.646V146.196H264.912V129.613Z" fill="#A3A3A2"/>
<path d="M281.011 129.613H294.688V133.519H285.677V136.028H293.838V139.656H285.677V142.282H294.815V146.188H281.019V129.605L281.011 129.613Z" fill="#A3A3A2"/>
<path d="M305.476 129.613H309.871L316.866 138.376V129.613H321.533V146.196H317.402L310.134 137.105V146.196H305.467V129.613H305.476Z" fill="#A3A3A2"/>
<path d="M336.962 133.647H331.862V129.623H346.78V133.647H341.68V146.198H336.971V133.647H336.962Z" fill="#A3A3A2"/>
<path d="M357.099 129.613H370.777V133.519H361.766V136.028H369.927V139.656H361.766V142.282H370.904V146.188H357.108V129.605L357.099 129.613Z" fill="#A3A3A2"/>
<defs>
<linearGradient id="paint0_linear_19394_37829" x1="30.1318" y1="55.7292" x2="68.6653" y2="146.957" gradientUnits="userSpaceOnUse">
<stop stop-color="#B02384"/>
<stop offset="1" stop-color="#723C8F"/>
</linearGradient>
</defs>
</svg>